Black Narrow — SC 1.ufo
<glyph name="ae.sc" format="1">
  <advance width="1631"/>
  <outline>
    <contour>
      <point x="923" y="1292" type="move" name="top"/>
    </contour>
    <contour>
      <point x="515" y="97" type="line"/>
      <point x="502" y="0" type="line"/>
      <point x="1538" y="0" type="line"/>
      <point x="1599" y="417" type="line"/>
      <point x="1407" y="428" type="line"/>
      <point x="1308" y="156" type="line"/>
      <point x="957" y="123" type="line"/>
      <point x="1024" y="601" type="line"/>
      <point x="1374" y="569" type="line"/>
      <point x="1408" y="784" type="line"/>
      <point x="1041" y="745" type="line"/>
      <point x="1106" y="1185" type="line"/>
      <point x="1353" y="1159" type="line"/>
      <point x="1380" y="964" type="line"/>
      <point x="1579" y="964" type="line"/>
      <point x="1616" y="1292" type="line"/>
      <point x="330" y="1292" type="line"/>
      <point x="313" y="1185" type="line"/>
      <point x="544" y="1159" type="line"/>
      <point x="-50" y="123" type="line"/>
      <point x="-175" y="97" type="line"/>
      <point x="-182" y="0" type="line"/>
      <point x="332" y="0" type="line"/>
      <point x="339" y="97" type="line"/>
      <point x="193" y="123" type="line"/>
      <point x="304" y="336" type="line"/>
      <point x="678" y="336" type="line"/>
      <point x="648" y="123" type="line"/>
    </contour>
    <contour>
      <point x="373" y="477" type="line"/>
      <point x="733" y="1189" type="line"/>
      <point x="792" y="1190" type="line"/>
      <point x="697" y="477" type="line"/>
    </contour>
  </outline>
</glyph>
<glyph name="b.sc" format="1">
  <advance width="1162"/>
  <outline>
    <contour>
      <point x="676" y="1292" type="move" name="top"/>
    </contour>
    <contour>
      <point x="535" y="0" type="move" name="bottom"/>
    </contour>
    <contour>
      <point x="512" y="-18" type="curve"/>
      <point x="911" y="-18"/>
      <point x="1104" y="104"/>
      <point x="1111" y="418" type="curve"/>
      <point x="1115" y="578"/>
      <point x="985" y="691"/>
      <point x="811" y="682" type="curve"/>
      <point x="1026" y="736"/>
      <point x="1129" y="836"/>
      <point x="1122" y="1032" type="curve"/>
      <point x="1118" y="1164"/>
      <point x="1062" y="1308"/>
      <point x="737" y="1308" type="curve"/>
      <point x="629" y="1308"/>
      <point x="536" y="1294"/>
      <point x="440" y="1292" type="curve"/>
      <point x="154" y="1292" type="line"/>
      <point x="142" y="1193" type="line"/>
      <point x="259" y="1171" type="line"/>
      <point x="116" y="123" type="line"/>
      <point x="6" y="97" type="line"/>
      <point x="-1" y="0" type="line"/>
      <point x="249" y="0" type="line" smooth="yes"/>
      <point x="324" y="0"/>
      <point x="433" y="-18"/>
    </contour>
    <contour>
      <point x="550" y="93" type="curve"/>
      <point x="493" y="93"/>
      <point x="364" y="117"/>
      <point x="379" y="135" type="curve"/>
      <point x="399" y="51" type="line"/>
      <point x="568" y="1256" type="line"/>
      <point x="518" y="1157" type="line"/>
      <point x="506" y="1187"/>
      <point x="622" y="1193"/>
      <point x="666" y="1193" type="curve"/>
      <point x="766" y="1193"/>
      <point x="826" y="1125"/>
      <point x="830" y="1002" type="curve"/>
      <point x="836" y="802"/>
      <point x="712" y="732"/>
      <point x="578" y="732" type="curve"/>
      <point x="536" y="732"/>
      <point x="507" y="732"/>
      <point x="465" y="732" type="curve"/>
      <point x="443" y="605" type="line"/>
      <point x="456" y="606"/>
      <point x="515" y="607"/>
      <point x="556" y="607" type="curve"/>
      <point x="725" y="607"/>
      <point x="780" y="540"/>
      <point x="785" y="387" type="curve"/>
      <point x="792" y="191"/>
      <point x="712" y="93"/>
    </contour>
  </outline>
</glyph>
<glyph name="d.sc" format="1">
  <advance width="1239"/>
  <outline>
    <contour>
      <point x="707" y="1294" type="move" name="top"/>
    </contour>
    <contour>
      <point x="496" y="0" type="move" name="bottom"/>
    </contour>
    <contour>
      <point x="498" y="-14" type="curve"/>
      <point x="1022" y="-10"/>
      <point x="1231" y="299"/>
      <point x="1241" y="765" type="curve"/>
      <point x="1249" y="1121"/>
      <point x="1064" y="1306"/>
      <point x="711" y="1306" type="curve"/>
      <point x="614" y="1306"/>
      <point x="508" y="1294"/>
      <point x="416" y="1292" type="curve"/>
      <point x="154" y="1292" type="line"/>
      <point x="144" y="1193" type="line"/>
      <point x="258" y="1171" type="line"/>
      <point x="115" y="123" type="line"/>
      <point x="-12" y="97" type="line"/>
      <point x="-23" y="0" type="line"/>
      <point x="295" y="0" type="line"/>
      <point x="343" y="0"/>
      <point x="425" y="-14"/>
    </contour>
    <contour>
      <point x="515" y="99" type="curve"/>
      <point x="471" y="99"/>
      <point x="413" y="116"/>
      <point x="387" y="144" type="curve"/>
      <point x="417" y="71" type="line"/>
      <point x="577" y="1235" type="line"/>
      <point x="538" y="1156" type="line"/>
      <point x="564" y="1169"/>
      <point x="583" y="1193"/>
      <point x="686" y="1193" type="curve"/>
      <point x="842" y="1193"/>
      <point x="910" y="1059"/>
      <point x="903" y="737" type="curve"/>
      <point x="897" y="465"/>
      <point x="799" y="96"/>
    </contour>
  </outline>
</glyph>
<glyph name="e.sc" format="1">
  <advance width="1092"/>
  <outline>
    <contour>
      <point x="651" y="1292" type="move" name="top"/>
    </contour>
    <contour>
      <point x="859" y="0" type="move" name="ogonek"/>
    </contour>
    <contour>
      <point x="498" y="0" type="move" name="bottom"/>
    </contour>
    <contour>
      <point x="1074" y="1292" type="line"/>
      <point x="155" y="1292" type="line"/>
      <point x="144" y="1192" type="line"/>
      <point x="261" y="1172" type="line"/>
      <point x="117" y="123" type="line"/>
      <point x="-12" y="97" type="line"/>
      <point x="-25" y="0" type="line"/>
      <point x="1002" y="0" type="line"/>
      <point x="1059" y="414" type="line"/>
      <point x="870" y="424" type="line"/>
      <point x="782" y="174" type="line"/>
      <point x="435" y="140" type="line"/>
      <point x="492" y="614" type="line"/>
      <point x="841" y="585" type="line"/>
      <point x="875" y="802" type="line"/>
      <point x="516" y="756" type="line"/>
      <point x="575" y="1184" type="line"/>
      <point x="821" y="1159" type="line"/>
      <point x="853" y="968" type="line"/>
      <point x="1039" y="968" type="line"/>
    </contour>
  </outline>
</glyph>
<glyph name="ezh.sc" format="1">
  <advance width="969"/>
  <outline>
    <contour>
      <point x="373" y="-10" type="curve"/>
      <point x="736" y="-10"/>
      <point x="919" y="200"/>
      <point x="925" y="454" type="curve"/>
      <point x="930" y="700"/>
      <point x="768" y="781"/>
      <point x="564" y="803" type="curve"/>
      <point x="458" y="689" type="line"/>
      <point x="965" y="1156" type="line"/>
      <point x="984" y="1292" type="line"/>
      <point x="171" y="1292" type="line"/>
      <point x="118" y="963" type="line"/>
      <point x="283" y="963" type="line"/>
      <point x="338" y="1108" type="line"/>
      <point x="687" y="1108" type="line"/>
      <point x="613" y="1023" type="line"/>
      <point x="322" y="699" type="line"/>
      <point x="374" y="629" type="line"/>
      <point x="388" y="628"/>
      <point x="404" y="629"/>
      <point x="413" y="629" type="curve"/>
      <point x="550" y="629"/>
      <point x="613" y="539"/>
      <point x="610" y="391" type="curve"/>
      <point x="607" y="244"/>
      <point x="501" y="123"/>
      <point x="402" y="123" type="curve"/>
      <point x="305" y="123"/>
      <point x="251" y="176"/>
      <point x="246" y="184" type="curve"/>
      <point x="212" y="385" type="line"/>
      <point x="77" y="385" type="line"/>
      <point x="15" y="56" type="line"/>
      <point x="59" y="48"/>
      <point x="161" y="-10"/>
    </contour>
  </outline>
</glyph>
<glyph name="f.sc" format="1">
  <advance width="1006"/>
  <outline>
    <contour>
      <point x="641" y="1292" type="move" name="top"/>
    </contour>
    <contour>
      <point x="5" y="97" type="line"/>
      <point x="-6" y="0" type="line"/>
      <point x="645" y="0" type="line"/>
      <point x="654" y="97" type="line"/>
      <point x="422" y="122" type="line"/>
      <point x="482" y="588" type="line"/>
      <point x="855" y="552" type="line"/>
      <point x="887" y="761" type="line"/>
      <point x="505" y="733" type="line"/>
      <point x="567" y="1183" type="line"/>
      <point x="824" y="1161" type="line"/>
      <point x="846" y="952" type="line"/>
      <point x="1042" y="952" type="line"/>
      <point x="1081" y="1292" type="line"/>
      <point x="154" y="1292" type="line"/>
      <point x="139" y="1192" type="line"/>
      <point x="257" y="1172" type="line"/>
      <point x="113" y="123" type="line"/>
    </contour>
  </outline>
</glyph>
<glyph name="g.sc" format="1">
  <advance width="1167"/>
  <outline>
    <contour>
      <point x="738" y="1292" type="move" name="top"/>
    </contour>
    <contour>
      <point x="535" y="0" type="move" name="bottom"/>
    </contour>
    <contour>
      <point x="529" y="-14" type="curve"/>
      <point x="686" y="-14"/>
      <point x="790" y="16"/>
      <point x="882" y="42" type="curve"/>
      <point x="936" y="56"/>
      <point x="1016" y="66"/>
      <point x="1045" y="70" type="curve"/>
      <point x="1122" y="647" type="line"/>
      <point x="660" y="647" type="line"/>
      <point x="642" y="511" type="line"/>
      <point x="791" y="497" type="line"/>
      <point x="747" y="136" type="line"/>
      <point x="703" y="127"/>
      <point x="659" y="126"/>
      <point x="589" y="126" type="curve"/>
      <point x="458" y="126"/>
      <point x="387" y="294"/>
      <point x="394" y="589" type="curve"/>
      <point x="403" y="932"/>
      <point x="478" y="1193"/>
      <point x="763" y="1193" type="curve"/>
      <point x="803" y="1193"/>
      <point x="850" y="1181"/>
      <point x="885" y="1160" type="curve"/>
      <point x="892" y="961" type="line"/>
      <point x="1107" y="961" type="line"/>
      <point x="1164" y="1250" type="line"/>
      <point x="1091" y="1250"/>
      <point x="997" y="1308"/>
      <point x="758" y="1308" type="curve"/>
      <point x="291" y="1308"/>
      <point x="59" y="1008"/>
      <point x="62" y="532" type="curve"/>
      <point x="64" y="237"/>
      <point x="198" y="-14"/>
    </contour>
  </outline>
</glyph>
<glyph name="germandbls.sc" format="1">
  <advance width="1240"/>
  <outline>
    <contour>
      <point x="742" y="-20" type="curve"/>
      <point x="962" y="-20"/>
      <point x="1180" y="124"/>
      <point x="1186" y="396" type="curve"/>
      <point x="1190" y="628"/>
      <point x="1035" y="745"/>
      <point x="879" y="784" type="curve"/>
      <point x="1123" y="1064" type="line"/>
      <point x="1142" y="1186" type="line"/>
      <point x="1112" y="1238"/>
      <point x="1005" y="1317"/>
      <point x="770" y="1317" type="curve"/>
      <point x="421" y="1317"/>
      <point x="190" y="1164"/>
      <point x="137" y="792" type="curve"/>
      <point x="43" y="122" type="line"/>
      <point x="-58" y="96" type="line"/>
      <point x="-68" y="0" type="line"/>
      <point x="348" y="0" type="line"/>
      <point x="465" y="829" type="line" smooth="yes"/>
      <point x="494" y="1062"/>
      <point x="558" y="1206"/>
      <point x="741" y="1206" type="curve"/>
      <point x="832" y="1206"/>
      <point x="892" y="1140"/>
      <point x="903" y="1062" type="curve"/>
      <point x="658" y="742" type="line"/>
      <point x="647" y="671" type="line"/>
      <point x="824" y="588"/>
      <point x="868" y="456"/>
      <point x="865" y="334" type="curve"/>
      <point x="862" y="152"/>
      <point x="807" y="78"/>
      <point x="748" y="78" type="curve"/>
      <point x="700" y="78"/>
      <point x="681" y="100"/>
      <point x="667" y="144" type="curve"/>
      <point x="645" y="288" type="line"/>
      <point x="505" y="288" type="line"/>
      <point x="470" y="28" type="line"/>
      <point x="530" y="22"/>
      <point x="630" y="-20"/>
    </contour>
  </outline>
</glyph>
<glyph name="h.sc" format="1">
  <advance width="1352"/>
  <outline>
    <contour>
      <point x="788" y="1292" type="move" name="top"/>
    </contour>
    <contour>
      <point x="619" y="0" type="move" name="bottom"/>
    </contour>
    <contour>
      <point x="0" y="96" type="line"/>
      <point x="-9" y="0" type="line"/>
      <point x="559" y="0" type="line"/>
      <point x="566" y="96" type="line"/>
      <point x="420" y="122" type="line"/>
      <point x="566" y="1172" type="line"/>
      <point x="719" y="1192" type="line"/>
      <point x="730" y="1292" type="line"/>
      <point x="154" y="1292" type="line"/>
      <point x="139" y="1192" type="line"/>
      <point x="254" y="1172" type="line"/>
      <point x="108" y="122" type="line"/>
    </contour>
    <contour>
      <point x="330" y="720" type="line"/>
      <point x="327" y="594" type="line"/>
      <point x="970" y="594" type="line"/>
      <point x="973" y="720" type="line"/>
    </contour>
    <contour>
      <point x="673" y="96" type="line"/>
      <point x="660" y="0" type="line"/>
      <point x="1251" y="0" type="line"/>
      <point x="1262" y="96" type="line"/>
      <point x="1146" y="122" type="line"/>
      <point x="1289" y="1172" type="line"/>
      <point x="1406" y="1192" type="line"/>
      <point x="1417" y="1292" type="line"/>
      <point x="843" y="1292" type="line"/>
      <point x="832" y="1192" type="line"/>
      <point x="975" y="1172" type="line"/>
      <point x="829" y="122" type="line"/>
    </contour>
  </outline>
</glyph>
<glyph name="i.sc" format="1">
  <advance width="632"/>
  <outline>
    <contour>
      <point x="450" y="1383" type="move" name="top"/>
    </contour>
    <contour>
      <point x="401" y="0" type="move" name="ogonek"/>
    </contour>
    <contour>
      <point x="249" y="0" type="move" name="bottom"/>
    </contour>
    <contour>
      <point x="-10" y="97" type="line"/>
      <point x="-23" y="0" type="line"/>
      <point x="559" y="0" type="line"/>
      <point x="564" y="97" type="line"/>
      <point x="424" y="123" type="line"/>
      <point x="567" y="1172" type="line"/>
      <point x="709" y="1192" type="line"/>
      <point x="719" y="1292" type="line"/>
      <point x="146" y="1292" type="line"/>
      <point x="137" y="1192" type="line"/>
      <point x="253" y="1172" type="line"/>
      <point x="110" y="123" type="line"/>
    </contour>
  </outline>
</glyph>
<glyph name="j.sc" format="1">
  <advance width="605"/>
  <outline>
    <contour>
      <point x="232" y="-142" type="move" name="btm"/>
    </contour>
    <contour>
      <point x="441" y="1292" type="move" name="top"/>
    </contour>
    <contour>
      <point x="562" y="1171" type="curve"/>
      <point x="672" y="1193" type="line"/>
      <point x="683" y="1292" type="line"/>
      <point x="152" y="1292" type="line"/>
      <point x="137" y="1193" type="line"/>
      <point x="251" y="1169" type="line"/>
      <point x="212" y="809"/>
      <point x="165" y="416"/>
      <point x="100" y="76" type="curve"/>
      <point x="79" y="-38"/>
      <point x="17" y="-126"/>
      <point x="-157" y="-188" type="curve"/>
      <point x="-112" y="-292" type="line"/>
      <point x="168" y="-268"/>
      <point x="336" y="-127"/>
      <point x="406" y="62" type="curve"/>
      <point x="435" y="138"/>
      <point x="498" y="668"/>
    </contour>
  </outline>
</glyph>
<glyph name="k.sc" format="1">
  <advance width="1241"/>
  <outline>
    <contour>
      <point x="793" y="1292" type="move" name="top"/>
    </contour>
    <contour>
      <point x="663" y="0" type="move" name="bottom"/>
    </contour>
    <contour>
      <point x="6" y="96" type="line"/>
      <point x="-7" y="0" type="line"/>
      <point x="557" y="0" type="line"/>
      <point x="566" y="96" type="line"/>
      <point x="425" y="122" type="line"/>
      <point x="569" y="1172" type="line"/>
      <point x="722" y="1192" type="line"/>
      <point x="733" y="1292" type="line"/>
      <point x="154" y="1292" type="line"/>
      <point x="143" y="1192" type="line"/>
      <point x="257" y="1172" type="line"/>
      <point x="110" y="122" type="line"/>
    </contour>
    <contour>
      <point x="457" y="594" type="line"/>
      <point x="444" y="420" type="line"/>
      <point x="641" y="621" type="line"/>
      <point x="799" y="779" type="line"/>
      <point x="1185" y="1172" type="line"/>
      <point x="1287" y="1192" type="line"/>
      <point x="1298" y="1292" type="line"/>
      <point x="861" y="1292" type="line"/>
      <point x="848" y="1194" type="line"/>
      <point x="982" y="1172" type="line"/>
    </contour>
    <contour>
      <point x="852" y="0" type="curve"/>
      <point x="1232" y="0" type="line"/>
      <point x="1242" y="98" type="line"/>
      <point x="1151" y="120" type="line"/>
      <point x="1108" y="146"/>
      <point x="1071" y="248"/>
      <point x="1001" y="406" type="curve"/>
      <point x="962" y="490"/>
      <point x="866" y="740"/>
      <point x="818" y="818" type="curve"/>
      <point x="600" y="630" type="line"/>
      <point x="653" y="494"/>
      <point x="713" y="258"/>
      <point x="751" y="144" type="curve"/>
      <point x="784" y="36"/>
      <point x="801" y="6"/>
    </contour>
  </outline>
</glyph>
<glyph name="l.sc" format="1">
  <advance width="1042"/>
  <outline>
    <contour>
      <point x="697" y="966" type="move" name="car"/>
    </contour>
    <contour>
      <point x="433" y="1292" type="move" name="top"/>
    </contour>
    <contour>
      <point x="476" y="0" type="move" name="bottom"/>
    </contour>
    <contour>
      <point x="2" y="96" type="line"/>
      <point x="-9" y="0" type="line"/>
      <point x="933" y="0" type="line"/>
      <point x="1024" y="520" type="line"/>
      <point x="865" y="540" type="line"/>
      <point x="679" y="136" type="line"/>
      <point x="421" y="116" type="line"/>
      <point x="566" y="1172" type="line"/>
      <point x="716" y="1192" type="line"/>
      <point x="727" y="1292" type="line"/>
      <point x="154" y="1292" type="line"/>
      <point x="139" y="1192" type="line"/>
      <point x="256" y="1172" type="line"/>
      <point x="111" y="122" type="line"/>
    </contour>
  </outline>
</glyph>
<glyph name="m.sc" format="1">
  <advance width="1647"/>
  <outline>
    <contour>
      <point x="949" y="1292" type="move" name="top"/>
    </contour>
    <contour>
      <point x="710" y="0" type="move" name="bottom"/>
    </contour>
    <contour>
      <point x="-46" y="96" type="line"/>
      <point x="-57" y="0" type="line"/>
      <point x="451" y="0" type="line"/>
      <point x="461" y="96" type="line"/>
      <point x="277" y="122" type="line"/>
      <point x="433" y="845" type="line"/>
      <point x="505" y="1167" type="line"/>
      <point x="544" y="853" type="line"/>
      <point x="636" y="-16" type="line"/>
      <point x="785" y="-2" type="line"/>
      <point x="1137" y="875" type="line"/>
      <point x="1252" y="1168" type="line"/>
      <point x="1233" y="833" type="line"/>
      <point x="1178" y="123" type="line"/>
      <point x="1027" y="101" type="line"/>
      <point x="1019" y="0" type="line"/>
      <point x="1620" y="0" type="line"/>
      <point x="1628" y="97" type="line"/>
      <point x="1483" y="123" type="line"/>
      <point x="1525" y="1171" type="line"/>
      <point x="1665" y="1193" type="line"/>
      <point x="1678" y="1292" type="line"/>
      <point x="1148" y="1292" type="line"/>
      <point x="903" y="622" type="line"/>
      <point x="864" y="486" type="line"/>
      <point x="851" y="620" type="line"/>
      <point x="790" y="1292" type="line"/>
      <point x="193" y="1292" type="line"/>
      <point x="178" y="1193" type="line"/>
      <point x="333" y="1171" type="line"/>
      <point x="81" y="122" type="line"/>
    </contour>
  </outline>
</glyph>
<glyph name="n.sc" format="1">
  <advance width="1277"/>
  <outline>
    <contour>
      <point x="792" y="1290" type="move" name="top"/>
    </contour>
    <contour>
      <point x="600" y="0" type="move" name="bottom"/>
    </contour>
    <contour>
      <point x="0" y="96" type="line"/>
      <point x="-7" y="0" type="line"/>
      <point x="451" y="0" type="line"/>
      <point x="462" y="96" type="line"/>
      <point x="305" y="122" type="line"/>
      <point x="428" y="1201" type="line"/>
      <point x="372" y="1194" type="line"/>
      <point x="473" y="844" type="line"/>
      <point x="748" y="0" type="line"/>
      <point x="1066" y="0" type="line"/>
      <point x="1250" y="1172" type="line"/>
      <point x="1360" y="1192" type="line"/>
      <point x="1370" y="1292" type="line"/>
      <point x="951" y="1292" type="line"/>
      <point x="942" y="1192" type="line"/>
      <point x="1075" y="1172" type="line"/>
      <point x="938" y="154" type="line"/>
      <point x="1000" y="162" type="line"/>
      <point x="897" y="486" type="line"/>
      <point x="640" y="1292" type="line"/>
      <point x="154" y="1292" type="line"/>
      <point x="139" y="1192" type="line"/>
      <point x="274" y="1172" type="line"/>
      <point x="124" y="122" type="line"/>
    </contour>
  </outline>
</glyph>
<glyph name="o.sc" format="1">
  <advance width="1208"/>
  <outline>
    <contour>
      <point x="162" y="1292" type="move" name="topleft"/>
    </contour>
    <contour>
      <point x="627" y="648" type="move" name="center"/>
    </contour>
    <contour>
      <point x="539" y="0" type="move" name="bottom"/>
    </contour>
    <contour>
      <point x="719" y="1292" type="move" name="top"/>
    </contour>
    <contour>
      <point x="934" y="1264" type="move" name="topright"/>
    </contour>
    <contour>
      <point x="722" y="18" type="move" name="ogonek"/>
    </contour>
    <contour>
      <point x="530" y="-18" type="curve"/>
      <point x="1001" y="-18"/>
      <point x="1174" y="378"/>
      <point x="1184" y="744" type="curve"/>
      <point x="1192" y="1048"/>
      <point x="1068" y="1310"/>
      <point x="714" y="1310" type="curve"/>
      <point x="264" y="1310"/>
      <point x="68" y="932"/>
      <point x="60" y="558" type="curve"/>
      <point x="51" y="226"/>
      <point x="183" y="-18"/>
    </contour>
    <contour>
      <point x="554" y="94" type="curve"/>
      <point x="442" y="94"/>
      <point x="391" y="250"/>
      <point x="399" y="570" type="curve"/>
      <point x="408" y="878"/>
      <point x="504" y="1198"/>
      <point x="689" y="1198" type="curve"/>
      <point x="803" y="1198"/>
      <point x="853" y="1050"/>
      <point x="845" y="724" type="curve"/>
      <point x="835" y="380"/>
      <point x="754" y="94"/>
    </contour>
  </outline>
</glyph>
<glyph name="oe.sc" format="1">
  <advance width="1906"/>
  <outline>
    <contour>
      <point x="536" y="-18" type="curve"/>
      <point x="714" y="-18"/>
      <point x="849" y="30"/>
      <point x="940" y="168" type="curve"/>
      <point x="913" y="0" type="line"/>
      <point x="1813" y="0" type="line"/>
      <point x="1873" y="417" type="line"/>
      <point x="1682" y="428" type="line"/>
      <point x="1589" y="168" type="line"/>
      <point x="1223" y="136" type="line"/>
      <point x="1283" y="594" type="line"/>
      <point x="1615" y="562" type="line"/>
      <point x="1654" y="796" type="line"/>
      <point x="1306" y="756" type="line"/>
      <point x="1364" y="1184" type="line"/>
      <point x="1633" y="1159" type="line"/>
      <point x="1667" y="964" type="line"/>
      <point x="1855" y="964" type="line"/>
      <point x="1890" y="1292" type="line"/>
      <point x="1083" y="1292" type="line"/>
      <point x="1057" y="1110" type="line"/>
      <point x="972" y="1236"/>
      <point x="902" y="1310"/>
      <point x="719" y="1310" type="curve"/>
      <point x="258" y="1310"/>
      <point x="69" y="929"/>
      <point x="59" y="555" type="curve"/>
      <point x="51" y="236"/>
      <point x="181" y="-18"/>
    </contour>
    <contour>
      <point x="561" y="93" type="curve"/>
      <point x="440" y="93"/>
      <point x="382" y="251"/>
      <point x="390" y="559" type="curve"/>
      <point x="398" y="874"/>
      <point x="498" y="1199"/>
      <point x="698" y="1199" type="curve"/>
      <point x="823" y="1199"/>
      <point x="879" y="1045"/>
      <point x="871" y="727" type="curve"/>
      <point x="861" y="377"/>
      <point x="772" y="93"/>
    </contour>
  </outline>
</glyph>
<glyph name="p.sc" format="1">
  <advance width="1102"/>
  <outline>
    <contour>
      <point x="668" y="1292" type="move" name="top"/>
    </contour>
    <contour>
      <point x="0" y="96" type="line"/>
      <point x="-9" y="0" type="line"/>
      <point x="625" y="0" type="line"/>
      <point x="632" y="96" type="line"/>
      <point x="420" y="122" type="line"/>
      <point x="575" y="1249" type="line"/>
      <point x="483" y="1151" type="line"/>
      <point x="522" y="1192"/>
      <point x="579" y="1192"/>
      <point x="620" y="1192" type="curve"/>
      <point x="754" y="1192"/>
      <point x="825" y="1108"/>
      <point x="821" y="948" type="curve"/>
      <point x="816" y="720"/>
      <point x="715" y="544"/>
      <point x="560" y="544" type="curve"/>
      <point x="541" y="544"/>
      <point x="519" y="544"/>
      <point x="455" y="556" type="curve"/>
      <point x="444" y="435" type="line"/>
      <point x="478" y="429"/>
      <point x="514" y="426"/>
      <point x="546" y="426" type="curve"/>
      <point x="920" y="426"/>
      <point x="1149" y="618"/>
      <point x="1140" y="956" type="curve"/>
      <point x="1135" y="1176"/>
      <point x="1011" y="1306"/>
      <point x="679" y="1306" type="curve"/>
      <point x="597" y="1306"/>
      <point x="509" y="1292"/>
      <point x="410" y="1292" type="curve"/>
      <point x="154" y="1292" type="line"/>
      <point x="138" y="1192" type="line"/>
      <point x="253" y="1172" type="line"/>
      <point x="108" y="122" type="line"/>
    </contour>
  </outline>
</glyph>
<glyph name="r.sc" format="1">
  <advance width="1200"/>
  <outline>
    <contour>
      <point x="653" y="1292" type="move" name="top"/>
    </contour>
    <contour>
      <point x="597" y="0" type="move" name="bottom"/>
    </contour>
    <contour>
      <point x="1" y="96" type="line"/>
      <point x="-8" y="0" type="line"/>
      <point x="558" y="0" type="line"/>
      <point x="565" y="96" type="line"/>
      <point x="417" y="122" type="line"/>
      <point x="571" y="1264" type="line"/>
      <point x="432" y="1147" type="line"/>
      <point x="524" y="1192"/>
      <point x="603" y="1192"/>
      <point x="632" y="1192" type="curve"/>
      <point x="741" y="1192"/>
      <point x="811" y="1130"/>
      <point x="807" y="988" type="curve"/>
      <point x="803" y="790"/>
      <point x="731" y="684"/>
      <point x="587" y="684" type="curve"/>
      <point x="548" y="684"/>
      <point x="507" y="685"/>
      <point x="468" y="685" type="curve"/>
      <point x="442" y="560" type="line"/>
      <point x="483" y="560"/>
      <point x="525" y="560"/>
      <point x="566" y="560" type="curve"/>
      <point x="632" y="560"/>
      <point x="666" y="304"/>
      <point x="720" y="148" type="curve"/>
      <point x="735" y="90"/>
      <point x="768" y="0"/>
      <point x="808" y="0" type="curve"/>
      <point x="1151" y="0" type="line"/>
      <point x="1160" y="96" type="line"/>
      <point x="1063" y="98"/>
      <point x="1028" y="184"/>
      <point x="973" y="324" type="curve"/>
      <point x="938" y="409"/>
      <point x="865" y="648"/>
      <point x="825" y="613" type="curve"/>
      <point x="756" y="572" type="line"/>
      <point x="982" y="618"/>
      <point x="1111" y="763"/>
      <point x="1115" y="968" type="curve"/>
      <point x="1120" y="1192"/>
      <point x="1007" y="1306"/>
      <point x="697" y="1306" type="curve"/>
      <point x="555" y="1306"/>
      <point x="517" y="1292"/>
      <point x="403" y="1292" type="curve"/>
      <point x="154" y="1292" type="line"/>
      <point x="143" y="1192" type="line"/>
      <point x="256" y="1172" type="line"/>
      <point x="111" y="122" type="line"/>
    </contour>
  </outline>
</glyph>
<glyph name="s.sc" format="1">
  <advance width="944"/>
  <outline>
    <contour>
      <point x="606" y="1292" type="move" name="top"/>
    </contour>
    <contour>
      <point x="405" y="0" type="move" name="bottom"/>
    </contour>
    <contour>
      <point x="407" y="-20" type="curve"/>
      <point x="730" y="-20"/>
      <point x="874" y="178"/>
      <point x="882" y="376" type="curve"/>
      <point x="888" y="548"/>
      <point x="775" y="675"/>
      <point x="639" y="766" type="curve"/>
      <point x="478" y="875"/>
      <point x="414" y="942"/>
      <point x="416" y="1061" type="curve"/>
      <point x="418" y="1136"/>
      <point x="455" y="1200"/>
      <point x="566" y="1200" type="curve"/>
      <point x="642" y="1200"/>
      <point x="676" y="1176"/>
      <point x="694" y="1148" type="curve"/>
      <point x="717" y="976" type="line"/>
      <point x="887" y="976" type="line"/>
      <point x="935" y="1234" type="line"/>
      <point x="882" y="1266"/>
      <point x="784" y="1308"/>
      <point x="598" y="1308" type="curve"/>
      <point x="341" y="1308"/>
      <point x="147" y="1180"/>
      <point x="137" y="925" type="curve"/>
      <point x="130" y="776"/>
      <point x="203" y="646"/>
      <point x="386" y="524" type="curve"/>
      <point x="550" y="413"/>
      <point x="594" y="348"/>
      <point x="591" y="251" type="curve"/>
      <point x="590" y="172"/>
      <point x="552" y="97"/>
      <point x="400" y="96" type="curve"/>
      <point x="319" y="97"/>
      <point x="283" y="126"/>
      <point x="250" y="156" type="curve"/>
      <point x="245" y="350" type="line"/>
      <point x="58" y="350" type="line"/>
      <point x="7" y="72" type="line"/>
      <point x="42" y="42"/>
      <point x="210" y="-20"/>
    </contour>
  </outline>
</glyph>
<glyph name="schwa.sc" format="1">
  <advance width="1124"/>
  <outline>
    <contour>
      <point x="471" y="-20" type="curve"/>
      <point x="785" y="-20"/>
      <point x="1056" y="314"/>
      <point x="1066" y="772" type="curve"/>
      <point x="1073" y="1100"/>
      <point x="898" y="1306"/>
      <point x="648" y="1306" type="curve"/>
      <point x="333" y="1306"/>
      <point x="281" y="1226"/>
      <point x="196" y="1228" type="curve"/>
      <point x="158" y="936" type="line"/>
      <point x="323" y="936" type="line"/>
      <point x="407" y="1119" type="line" smooth="yes"/>
      <point x="430" y="1174"/>
      <point x="461" y="1205"/>
      <point x="549" y="1205" type="curve"/>
      <point x="723" y="1205"/>
      <point x="765" y="971"/>
      <point x="748" y="663" type="curve"/>
      <point x="748" y="664"/>
      <point x="746" y="665"/>
      <point x="745" y="664" type="curve"/>
      <point x="102" y="664" type="line"/>
      <point x="86" y="618"/>
      <point x="62" y="516"/>
      <point x="60" y="416" type="curve"/>
      <point x="54" y="144"/>
      <point x="207" y="-20"/>
    </contour>
    <contour>
      <point x="508" y="103" type="curve"/>
      <point x="402" y="103"/>
      <point x="360" y="189"/>
      <point x="365" y="382" type="curve"/>
      <point x="366" y="439"/>
      <point x="375" y="475"/>
      <point x="388" y="537" type="curve"/>
      <point x="734" y="537" type="line"/>
      <point x="695" y="195"/>
      <point x="603" y="103"/>
    </contour>
  </outline>
</glyph>
<glyph name="t.sc" format="1">
  <advance width="1199"/>
  <outline>
    <contour>
      <point x="719" y="1292" type="move" name="top"/>
    </contour>
    <contour>
      <point x="551" y="0" type="move" name="bottom"/>
    </contour>
    <contour>
      <point x="191" y="116" type="line"/>
      <point x="169" y="0" type="line"/>
      <point x="937" y="0" type="line"/>
      <point x="956" y="116" type="line"/>
      <point x="712" y="142" type="line"/>
      <point x="859" y="1185" type="line"/>
      <point x="1030" y="1161" type="line"/>
      <point x="1047" y="770" type="line"/>
      <point x="1207" y="770" type="line"/>
      <point x="1283" y="1292" type="line"/>
      <point x="151" y="1292" type="line"/>
      <point x="64" y="770" type="line"/>
      <point x="228" y="770" type="line"/>
      <point x="377" y="1161" type="line"/>
      <point x="549" y="1184" type="line"/>
      <point x="410" y="142" type="line"/>
    </contour>
  </outline>
</glyph>
<glyph name="u.sc" format="1">
  <advance width="1191"/>
  <outline>
    <contour>
      <point x="754" y="1292" type="move" name="top"/>
    </contour>
    <contour>
      <point x="717" y="16" type="move" name="ogonek"/>
    </contour>
    <contour>
      <point x="1271" y="1292" type="move" name="topright"/>
    </contour>
    <contour>
      <point x="589" y="0" type="move" name="bottom"/>
    </contour>
    <contour>
      <point x="575" y="-18" type="curve"/>
      <point x="913" y="-18"/>
      <point x="1052" y="175"/>
      <point x="1099" y="532" type="curve"/>
      <point x="1182" y="1171" type="line"/>
      <point x="1285" y="1195" type="line"/>
      <point x="1298" y="1292" type="line"/>
      <point x="916" y="1292" type="line"/>
      <point x="907" y="1195" type="line"/>
      <point x="1025" y="1171" type="line"/>
      <point x="936" y="532" type="line" smooth="yes"/>
      <point x="902" y="281"/>
      <point x="837" y="95"/>
      <point x="633" y="95" type="curve"/>
      <point x="441" y="95"/>
      <point x="419" y="276"/>
      <point x="452" y="532" type="curve"/>
      <point x="537" y="1171" type="line"/>
      <point x="702" y="1195" type="line"/>
      <point x="714" y="1292" type="line"/>
      <point x="120" y="1292" type="line"/>
      <point x="109" y="1193" type="line"/>
      <point x="225" y="1171" type="line"/>
      <point x="138" y="504" type="line" smooth="yes"/>
      <point x="92" y="150"/>
      <point x="247" y="-18"/>
    </contour>
  </outline>
</glyph>
<glyph name="v.sc" format="1">
  <advance width="1008"/>
  <outline>
    <contour>
      <point x="802" y="1444" type="move" name="top"/>
    </contour>
    <contour>
      <point x="90" y="1171" type="line"/>
      <point x="256" y="-6" type="line"/>
      <point x="522" y="-8" type="line"/>
      <point x="1060" y="1171" type="line"/>
      <point x="1188" y="1193" type="line"/>
      <point x="1207" y="1292" type="line"/>
      <point x="753" y="1292" type="line"/>
      <point x="744" y="1193" type="line"/>
      <point x="889" y="1171" type="line"/>
      <point x="563" y="446" type="line"/>
      <point x="417" y="82" type="line"/>
      <point x="480" y="71" type="line"/>
      <point x="458" y="446" type="line"/>
      <point x="385" y="1172" type="line"/>
      <point x="513" y="1192" type="line"/>
      <point x="522" y="1292" type="line"/>
      <point x="-8" y="1292" type="line"/>
      <point x="-21" y="1195" type="line"/>
    </contour>
  </outline>
</glyph>
<glyph name="w.sc" format="1">
  <advance width="1595"/>
  <outline>
    <contour>
      <point x="976" y="1292" type="move" name="top"/>
    </contour>
    <contour>
      <point x="744" y="0" type="move" name="bottom"/>
    </contour>
    <contour>
      <point x="93" y="1169" type="line"/>
      <point x="250" y="-8" type="line"/>
      <point x="519" y="-8" type="line"/>
      <point x="903" y="911" type="line"/>
      <point x="873" y="1202" type="line"/>
      <point x="558" y="460" type="line"/>
      <point x="416" y="128" type="line"/>
      <point x="483" y="117" type="line"/>
      <point x="458" y="448" type="line"/>
      <point x="392" y="1166" type="line"/>
      <point x="512" y="1192" type="line"/>
      <point x="520" y="1292" type="line"/>
      <point x="-2" y="1292" type="line"/>
      <point x="-14" y="1195" type="line"/>
    </contour>
    <contour>
      <point x="792" y="1169" type="line"/>
      <point x="893" y="-8" type="line"/>
      <point x="1164" y="-8" type="line"/>
      <point x="1704" y="1171" type="line"/>
      <point x="1834" y="1195" type="line"/>
      <point x="1843" y="1292" type="line"/>
      <point x="1380" y="1292" type="line"/>
      <point x="1371" y="1192" type="line"/>
      <point x="1526" y="1169" type="line"/>
      <point x="1226" y="455" type="line"/>
      <point x="1073" y="131" type="line"/>
      <point x="1136" y="116" type="line"/>
      <point x="1131" y="448" type="line"/>
      <point x="1074" y="1170" type="line"/>
      <point x="1206" y="1192" type="line"/>
      <point x="1212" y="1292" type="line"/>
      <point x="669" y="1292" type="line"/>
      <point x="660" y="1195" type="line"/>
    </contour>
  </outline>
</glyph>
<glyph name="x.sc" format="1">
  <advance width="1119"/>
  <outline>
    <contour>
      <point x="-53" y="97" type="line"/>
      <point x="-64" y="0" type="line"/>
      <point x="364" y="0" type="line"/>
      <point x="373" y="97" type="line"/>
      <point x="257" y="123" type="line"/>
      <point x="493" y="478" type="line"/>
      <point x="731" y="679" type="line"/>
      <point x="1113" y="1171" type="line"/>
      <point x="1222" y="1193" type="line"/>
      <point x="1230" y="1292" type="line"/>
      <point x="805" y="1292" type="line"/>
      <point x="799" y="1193" type="line"/>
      <point x="899" y="1171" type="line"/>
      <point x="670" y="816" type="line"/>
      <point x="433" y="625" type="line"/>
      <point x="34" y="123" type="line"/>
    </contour>
    <contour>
      <point x="503" y="97" type="line"/>
      <point x="496" y="0" type="line"/>
      <point x="1073" y="0" type="line"/>
      <point x="1084" y="97" type="line"/>
      <point x="990" y="123" type="line"/>
      <point x="731" y="679" type="line"/>
      <point x="670" y="816" type="line"/>
      <point x="551" y="1171" type="line"/>
      <point x="664" y="1195" type="line"/>
      <point x="671" y="1292" type="line"/>
      <point x="117" y="1292" type="line"/>
      <point x="108" y="1193" type="line"/>
      <point x="196" y="1171" type="line"/>
      <point x="433" y="625" type="line"/>
      <point x="493" y="478" type="line"/>
      <point x="615" y="123" type="line"/>
    </contour>
  </outline>
</glyph>
<glyph name="y.sc" format="1">
  <advance width="1089"/>
  <outline>
    <contour>
      <point x="161" y="1292" type="move" name="topleft"/>
    </contour>
    <contour>
      <point x="703" y="1292" type="move" name="top"/>
    </contour>
    <contour>
      <point x="496" y="0" type="move" name="bottom"/>
    </contour>
    <contour>
      <point x="158" y="97" type="line"/>
      <point x="147" y="0" type="line"/>
      <point x="847" y="0" type="line"/>
      <point x="856" y="97" type="line"/>
      <point x="656" y="123" type="line"/>
      <point x="728" y="654" type="line"/>
      <point x="633" y="405" type="line"/>
      <point x="1125" y="1171" type="line"/>
      <point x="1233" y="1193" type="line"/>
      <point x="1248" y="1292" type="line"/>
      <point x="801" y="1292" type="line"/>
      <point x="792" y="1193" type="line"/>
      <point x="924" y="1171" type="line"/>
      <point x="689" y="760" type="line"/>
      <point x="576" y="540" type="line"/>
      <point x="681" y="530" type="line"/>
      <point x="604" y="788" type="line"/>
      <point x="494" y="1171" type="line"/>
      <point x="629" y="1193" type="line"/>
      <point x="643" y="1292" type="line"/>
      <point x="44" y="1292" type="line"/>
      <point x="33" y="1193" type="line"/>
      <point x="139" y="1171" type="line"/>
      <point x="444" y="393" type="line"/>
      <point x="410" y="654" type="line"/>
      <point x="343" y="123" type="line"/>
    </contour>
  </outline>
</glyph>
<glyph name="z.sc" format="1">
  <advance width="992"/>
  <outline>
    <contour>
      <point x="605" y="1292" type="move" name="top"/>
    </contour>
    <contour>
      <point x="427" y="0" type="move" name="bottom"/>
    </contour>
    <contour>
      <point x="-52" y="78" type="line"/>
      <point x="-24" y="0" type="line"/>
      <point x="889" y="0" type="line"/>
      <point x="974" y="386" type="line"/>
      <point x="822" y="431" type="line"/>
      <point x="650" y="146" type="line"/>
      <point x="301" y="127" type="line"/>
      <point x="386" y="193" type="line"/>
      <point x="1072" y="1216" type="line"/>
      <point x="1047" y="1292" type="line"/>
      <point x="198" y="1292" type="line"/>
      <point x="144" y="949" type="line"/>
      <point x="296" y="930" type="line"/>
      <point x="421" y="1159" type="line"/>
      <point x="741" y="1179" type="line"/>
      <point x="650" y="1118" type="line"/>
    </contour>
  </outline>
</glyph>
